<mxfile host="app.diagrams.net" agent="Mozilla/5.0 (Windows NT 10.0; Win64; x64) AppleWebKit/537.36 (KHTML, like Gecko) Chrome/131.0.0.0 Safari/537.36" version="26.0.4">
  <diagram name="Page-1" id="azHrtAloLR80BHmA5Px3">
    <mxGraphModel dx="3000" dy="928" grid="1" gridSize="10" guides="1" tooltips="1" connect="1" arrows="1" fold="1" page="1" pageScale="1" pageWidth="850" pageHeight="1100" math="0" shadow="0">
      <root>
        <mxCell id="0" />
        <mxCell id="1" parent="0" />
        <mxCell id="pXawCjsftcTQ7RIIFrh7-2" value="Start" style="ellipse;whiteSpace=wrap;html=1;" vertex="1" parent="1">
          <mxGeometry x="160" y="40" width="120" height="80" as="geometry" />
        </mxCell>
        <mxCell id="pXawCjsftcTQ7RIIFrh7-3" value="End" style="ellipse;whiteSpace=wrap;html=1;" vertex="1" parent="1">
          <mxGeometry x="560" y="780" width="120" height="80" as="geometry" />
        </mxCell>
        <mxCell id="pXawCjsftcTQ7RIIFrh7-4" value="Move Character" style="rounded=0;whiteSpace=wrap;html=1;" vertex="1" parent="1">
          <mxGeometry x="360" y="790" width="120" height="60" as="geometry" />
        </mxCell>
        <mxCell id="pXawCjsftcTQ7RIIFrh7-5" value="INPUT" style="shape=parallelogram;perimeter=parallelogramPerimeter;whiteSpace=wrap;html=1;fixedSize=1;" vertex="1" parent="1">
          <mxGeometry x="160" y="160" width="120" height="60" as="geometry" />
        </mxCell>
        <mxCell id="pXawCjsftcTQ7RIIFrh7-7" value="if input == w" style="rhombus;whiteSpace=wrap;html=1;" vertex="1" parent="1">
          <mxGeometry x="160" y="280" width="120" height="120" as="geometry" />
        </mxCell>
        <mxCell id="pXawCjsftcTQ7RIIFrh7-10" value="if input == a" style="rhombus;whiteSpace=wrap;html=1;" vertex="1" parent="1">
          <mxGeometry x="160" y="440" width="120" height="120" as="geometry" />
        </mxCell>
        <mxCell id="pXawCjsftcTQ7RIIFrh7-11" value="if input == s" style="rhombus;whiteSpace=wrap;html=1;" vertex="1" parent="1">
          <mxGeometry x="160" y="760" width="120" height="120" as="geometry" />
        </mxCell>
        <mxCell id="pXawCjsftcTQ7RIIFrh7-12" value="if input == d" style="rhombus;whiteSpace=wrap;html=1;" vertex="1" parent="1">
          <mxGeometry x="160" y="600" width="120" height="120" as="geometry" />
        </mxCell>
        <mxCell id="pXawCjsftcTQ7RIIFrh7-14" value="" style="endArrow=none;html=1;rounded=0;entryX=0.5;entryY=1;entryDx=0;entryDy=0;exitX=0.5;exitY=0;exitDx=0;exitDy=0;" edge="1" parent="1" source="pXawCjsftcTQ7RIIFrh7-5" target="pXawCjsftcTQ7RIIFrh7-2">
          <mxGeometry width="50" height="50" relative="1" as="geometry">
            <mxPoint x="180" y="170" as="sourcePoint" />
            <mxPoint x="230" y="120" as="targetPoint" />
          </mxGeometry>
        </mxCell>
        <mxCell id="pXawCjsftcTQ7RIIFrh7-15" value="" style="endArrow=none;html=1;rounded=0;entryX=0.5;entryY=1;entryDx=0;entryDy=0;exitX=0.5;exitY=0;exitDx=0;exitDy=0;" edge="1" parent="1" source="pXawCjsftcTQ7RIIFrh7-7">
          <mxGeometry width="50" height="50" relative="1" as="geometry">
            <mxPoint x="219.58" y="260" as="sourcePoint" />
            <mxPoint x="219.58" y="220" as="targetPoint" />
          </mxGeometry>
        </mxCell>
        <mxCell id="pXawCjsftcTQ7RIIFrh7-16" value="" style="endArrow=none;html=1;rounded=0;entryX=0.5;entryY=1;entryDx=0;entryDy=0;" edge="1" parent="1">
          <mxGeometry width="50" height="50" relative="1" as="geometry">
            <mxPoint x="220" y="440" as="sourcePoint" />
            <mxPoint x="219.58" y="400" as="targetPoint" />
          </mxGeometry>
        </mxCell>
        <mxCell id="pXawCjsftcTQ7RIIFrh7-17" value="" style="endArrow=none;html=1;rounded=0;entryX=0.5;entryY=1;entryDx=0;entryDy=0;" edge="1" parent="1">
          <mxGeometry width="50" height="50" relative="1" as="geometry">
            <mxPoint x="220" y="600" as="sourcePoint" />
            <mxPoint x="219.58" y="560" as="targetPoint" />
          </mxGeometry>
        </mxCell>
        <mxCell id="pXawCjsftcTQ7RIIFrh7-18" value="" style="endArrow=none;html=1;rounded=0;entryX=0.5;entryY=1;entryDx=0;entryDy=0;" edge="1" parent="1">
          <mxGeometry width="50" height="50" relative="1" as="geometry">
            <mxPoint x="220" y="760" as="sourcePoint" />
            <mxPoint x="219.58" y="720" as="targetPoint" />
          </mxGeometry>
        </mxCell>
        <mxCell id="pXawCjsftcTQ7RIIFrh7-19" value="" style="endArrow=none;html=1;rounded=0;entryX=0;entryY=0.5;entryDx=0;entryDy=0;exitX=1;exitY=0.5;exitDx=0;exitDy=0;" edge="1" parent="1" source="pXawCjsftcTQ7RIIFrh7-11" target="pXawCjsftcTQ7RIIFrh7-4">
          <mxGeometry width="50" height="50" relative="1" as="geometry">
            <mxPoint x="330.42" y="730" as="sourcePoint" />
            <mxPoint x="330" y="690" as="targetPoint" />
          </mxGeometry>
        </mxCell>
        <mxCell id="pXawCjsftcTQ7RIIFrh7-20" value="" style="endArrow=none;html=1;rounded=0;entryX=0;entryY=0.5;entryDx=0;entryDy=0;exitX=1;exitY=0.5;exitDx=0;exitDy=0;" edge="1" parent="1" source="pXawCjsftcTQ7RIIFrh7-4" target="pXawCjsftcTQ7RIIFrh7-3">
          <mxGeometry width="50" height="50" relative="1" as="geometry">
            <mxPoint x="290" y="830" as="sourcePoint" />
            <mxPoint x="370" y="830" as="targetPoint" />
          </mxGeometry>
        </mxCell>
        <mxCell id="pXawCjsftcTQ7RIIFrh7-21" value="" style="endArrow=none;html=1;rounded=0;entryX=0.5;entryY=0;entryDx=0;entryDy=0;exitX=1;exitY=0.5;exitDx=0;exitDy=0;" edge="1" parent="1" source="pXawCjsftcTQ7RIIFrh7-7" target="pXawCjsftcTQ7RIIFrh7-4">
          <mxGeometry width="50" height="50" relative="1" as="geometry">
            <mxPoint x="290" y="830" as="sourcePoint" />
            <mxPoint x="370" y="830" as="targetPoint" />
            <Array as="points">
              <mxPoint x="420" y="340" />
            </Array>
          </mxGeometry>
        </mxCell>
        <mxCell id="pXawCjsftcTQ7RIIFrh7-22" value="" style="endArrow=none;html=1;rounded=0;" edge="1" parent="1">
          <mxGeometry width="50" height="50" relative="1" as="geometry">
            <mxPoint x="280" y="500" as="sourcePoint" />
            <mxPoint x="420" y="500" as="targetPoint" />
          </mxGeometry>
        </mxCell>
        <mxCell id="pXawCjsftcTQ7RIIFrh7-23" value="" style="endArrow=none;html=1;rounded=0;" edge="1" parent="1">
          <mxGeometry width="50" height="50" relative="1" as="geometry">
            <mxPoint x="280" y="659.58" as="sourcePoint" />
            <mxPoint x="420" y="659.58" as="targetPoint" />
          </mxGeometry>
        </mxCell>
        <mxCell id="pXawCjsftcTQ7RIIFrh7-24" value="yes" style="text;html=1;align=center;verticalAlign=middle;resizable=0;points=[];autosize=1;strokeColor=none;fillColor=none;" vertex="1" parent="1">
          <mxGeometry x="270" y="318" width="40" height="30" as="geometry" />
        </mxCell>
        <mxCell id="pXawCjsftcTQ7RIIFrh7-25" value="yes" style="text;html=1;align=center;verticalAlign=middle;resizable=0;points=[];autosize=1;strokeColor=none;fillColor=none;" vertex="1" parent="1">
          <mxGeometry x="270" y="480" width="40" height="30" as="geometry" />
        </mxCell>
        <mxCell id="pXawCjsftcTQ7RIIFrh7-26" value="yes" style="text;html=1;align=center;verticalAlign=middle;resizable=0;points=[];autosize=1;strokeColor=none;fillColor=none;" vertex="1" parent="1">
          <mxGeometry x="270" y="640" width="40" height="30" as="geometry" />
        </mxCell>
        <mxCell id="pXawCjsftcTQ7RIIFrh7-27" value="yes" style="text;html=1;align=center;verticalAlign=middle;resizable=0;points=[];autosize=1;strokeColor=none;fillColor=none;" vertex="1" parent="1">
          <mxGeometry x="270" y="800" width="40" height="30" as="geometry" />
        </mxCell>
        <mxCell id="pXawCjsftcTQ7RIIFrh7-28" value="no" style="text;html=1;align=center;verticalAlign=middle;resizable=0;points=[];autosize=1;strokeColor=none;fillColor=none;" vertex="1" parent="1">
          <mxGeometry x="190" y="390" width="40" height="30" as="geometry" />
        </mxCell>
        <mxCell id="pXawCjsftcTQ7RIIFrh7-29" value="no" style="text;html=1;align=center;verticalAlign=middle;resizable=0;points=[];autosize=1;strokeColor=none;fillColor=none;" vertex="1" parent="1">
          <mxGeometry x="190" y="550" width="40" height="30" as="geometry" />
        </mxCell>
        <mxCell id="pXawCjsftcTQ7RIIFrh7-30" value="no" style="text;html=1;align=center;verticalAlign=middle;resizable=0;points=[];autosize=1;strokeColor=none;fillColor=none;" vertex="1" parent="1">
          <mxGeometry x="190" y="710" width="40" height="30" as="geometry" />
        </mxCell>
        <mxCell id="pXawCjsftcTQ7RIIFrh7-31" value="Start" style="ellipse;whiteSpace=wrap;html=1;" vertex="1" parent="1">
          <mxGeometry x="-240" y="40" width="120" height="80" as="geometry" />
        </mxCell>
        <mxCell id="pXawCjsftcTQ7RIIFrh7-32" value="INPUT" style="shape=parallelogram;perimeter=parallelogramPerimeter;whiteSpace=wrap;html=1;fixedSize=1;" vertex="1" parent="1">
          <mxGeometry x="-240" y="160" width="120" height="60" as="geometry" />
        </mxCell>
        <mxCell id="pXawCjsftcTQ7RIIFrh7-34" value="if&amp;nbsp;&lt;div&gt;anyItemNearby == true&lt;/div&gt;" style="rhombus;whiteSpace=wrap;html=1;" vertex="1" parent="1">
          <mxGeometry x="-240" y="280" width="120" height="120" as="geometry" />
        </mxCell>
        <mxCell id="pXawCjsftcTQ7RIIFrh7-35" value="Add Item" style="rounded=0;whiteSpace=wrap;html=1;" vertex="1" parent="1">
          <mxGeometry x="-240" y="440" width="120" height="60" as="geometry" />
        </mxCell>
        <mxCell id="pXawCjsftcTQ7RIIFrh7-36" value="End" style="ellipse;whiteSpace=wrap;html=1;" vertex="1" parent="1">
          <mxGeometry x="-240" y="680" width="120" height="80" as="geometry" />
        </mxCell>
        <mxCell id="pXawCjsftcTQ7RIIFrh7-37" value="" style="endArrow=none;html=1;rounded=0;entryX=0.5;entryY=1;entryDx=0;entryDy=0;exitX=0.5;exitY=0;exitDx=0;exitDy=0;" edge="1" parent="1">
          <mxGeometry width="50" height="50" relative="1" as="geometry">
            <mxPoint x="-180.5" y="160" as="sourcePoint" />
            <mxPoint x="-180.5" y="120" as="targetPoint" />
          </mxGeometry>
        </mxCell>
        <mxCell id="pXawCjsftcTQ7RIIFrh7-38" value="" style="endArrow=none;html=1;rounded=0;entryX=0.5;entryY=1;entryDx=0;entryDy=0;exitX=0.5;exitY=0;exitDx=0;exitDy=0;" edge="1" parent="1" source="pXawCjsftcTQ7RIIFrh7-34">
          <mxGeometry width="50" height="50" relative="1" as="geometry">
            <mxPoint x="-180.29" y="260" as="sourcePoint" />
            <mxPoint x="-180.29" y="220" as="targetPoint" />
          </mxGeometry>
        </mxCell>
        <mxCell id="pXawCjsftcTQ7RIIFrh7-42" value="Generate Dialouge" style="rounded=0;whiteSpace=wrap;html=1;" vertex="1" parent="1">
          <mxGeometry x="-240" y="560" width="120" height="60" as="geometry" />
        </mxCell>
        <mxCell id="pXawCjsftcTQ7RIIFrh7-43" value="" style="endArrow=none;html=1;rounded=0;entryX=1;entryY=0.5;entryDx=0;entryDy=0;exitX=1;exitY=0.5;exitDx=0;exitDy=0;" edge="1" parent="1" source="pXawCjsftcTQ7RIIFrh7-32">
          <mxGeometry width="50" height="50" relative="1" as="geometry">
            <mxPoint x="-20" y="339.66" as="sourcePoint" />
            <mxPoint x="-120" y="339.66" as="targetPoint" />
            <Array as="points">
              <mxPoint x="-60" y="190" />
              <mxPoint x="-60" y="340" />
            </Array>
          </mxGeometry>
        </mxCell>
        <mxCell id="pXawCjsftcTQ7RIIFrh7-44" value="" style="endArrow=none;html=1;rounded=0;entryX=0.5;entryY=1;entryDx=0;entryDy=0;" edge="1" parent="1">
          <mxGeometry width="50" height="50" relative="1" as="geometry">
            <mxPoint x="-180" y="440" as="sourcePoint" />
            <mxPoint x="-180.34" y="400" as="targetPoint" />
          </mxGeometry>
        </mxCell>
        <mxCell id="pXawCjsftcTQ7RIIFrh7-46" value="" style="endArrow=none;html=1;rounded=0;entryX=0.5;entryY=1;entryDx=0;entryDy=0;exitX=0.5;exitY=0;exitDx=0;exitDy=0;" edge="1" parent="1" source="pXawCjsftcTQ7RIIFrh7-42">
          <mxGeometry width="50" height="50" relative="1" as="geometry">
            <mxPoint x="-180" y="540" as="sourcePoint" />
            <mxPoint x="-180.34" y="500" as="targetPoint" />
          </mxGeometry>
        </mxCell>
        <mxCell id="pXawCjsftcTQ7RIIFrh7-47" value="" style="endArrow=none;html=1;rounded=0;entryX=0.5;entryY=1;entryDx=0;entryDy=0;exitX=0.5;exitY=0;exitDx=0;exitDy=0;" edge="1" parent="1">
          <mxGeometry width="50" height="50" relative="1" as="geometry">
            <mxPoint x="-180" y="680" as="sourcePoint" />
            <mxPoint x="-180.34" y="620" as="targetPoint" />
          </mxGeometry>
        </mxCell>
        <mxCell id="pXawCjsftcTQ7RIIFrh7-48" value="Start" style="ellipse;whiteSpace=wrap;html=1;" vertex="1" parent="1">
          <mxGeometry x="-550" y="40" width="120" height="80" as="geometry" />
        </mxCell>
        <mxCell id="pXawCjsftcTQ7RIIFrh7-49" value="INPUT" style="shape=parallelogram;perimeter=parallelogramPerimeter;whiteSpace=wrap;html=1;fixedSize=1;" vertex="1" parent="1">
          <mxGeometry x="-550" y="160" width="120" height="60" as="geometry" />
        </mxCell>
        <mxCell id="pXawCjsftcTQ7RIIFrh7-51" value="if&amp;nbsp;&lt;div&gt;input == tab&lt;/div&gt;" style="rhombus;whiteSpace=wrap;html=1;" vertex="1" parent="1">
          <mxGeometry x="-550" y="280" width="120" height="120" as="geometry" />
        </mxCell>
        <mxCell id="pXawCjsftcTQ7RIIFrh7-52" value="Open Inventory" style="rounded=0;whiteSpace=wrap;html=1;" vertex="1" parent="1">
          <mxGeometry x="-550" y="440" width="120" height="60" as="geometry" />
        </mxCell>
        <mxCell id="pXawCjsftcTQ7RIIFrh7-53" value="Show Item" style="rounded=0;whiteSpace=wrap;html=1;" vertex="1" parent="1">
          <mxGeometry x="-550" y="560" width="120" height="60" as="geometry" />
        </mxCell>
        <mxCell id="pXawCjsftcTQ7RIIFrh7-54" value="End" style="ellipse;whiteSpace=wrap;html=1;" vertex="1" parent="1">
          <mxGeometry x="-550" y="680" width="120" height="80" as="geometry" />
        </mxCell>
        <mxCell id="pXawCjsftcTQ7RIIFrh7-55" value="" style="endArrow=none;html=1;rounded=0;entryX=0.5;entryY=1;entryDx=0;entryDy=0;exitX=0.5;exitY=0;exitDx=0;exitDy=0;" edge="1" parent="1">
          <mxGeometry width="50" height="50" relative="1" as="geometry">
            <mxPoint x="-490.34" y="160" as="sourcePoint" />
            <mxPoint x="-490.34" y="120" as="targetPoint" />
          </mxGeometry>
        </mxCell>
        <mxCell id="pXawCjsftcTQ7RIIFrh7-56" value="" style="endArrow=none;html=1;rounded=0;entryX=0.5;entryY=0;entryDx=0;entryDy=0;exitX=0.5;exitY=1;exitDx=0;exitDy=0;" edge="1" parent="1" source="pXawCjsftcTQ7RIIFrh7-49" target="pXawCjsftcTQ7RIIFrh7-51">
          <mxGeometry width="50" height="50" relative="1" as="geometry">
            <mxPoint x="-480.34" y="170" as="sourcePoint" />
            <mxPoint x="-480.34" y="130" as="targetPoint" />
          </mxGeometry>
        </mxCell>
        <mxCell id="pXawCjsftcTQ7RIIFrh7-57" value="" style="endArrow=none;html=1;rounded=0;exitX=0.5;exitY=1;exitDx=0;exitDy=0;" edge="1" parent="1">
          <mxGeometry width="50" height="50" relative="1" as="geometry">
            <mxPoint x="-490.34" y="400" as="sourcePoint" />
            <mxPoint x="-490" y="440" as="targetPoint" />
          </mxGeometry>
        </mxCell>
        <mxCell id="pXawCjsftcTQ7RIIFrh7-58" value="" style="endArrow=none;html=1;rounded=0;exitX=0.5;exitY=1;exitDx=0;exitDy=0;entryX=0.5;entryY=0;entryDx=0;entryDy=0;" edge="1" parent="1" target="pXawCjsftcTQ7RIIFrh7-53">
          <mxGeometry width="50" height="50" relative="1" as="geometry">
            <mxPoint x="-490.34" y="500" as="sourcePoint" />
            <mxPoint x="-490" y="540" as="targetPoint" />
          </mxGeometry>
        </mxCell>
        <mxCell id="pXawCjsftcTQ7RIIFrh7-59" value="" style="endArrow=none;html=1;rounded=0;exitX=0.5;exitY=1;exitDx=0;exitDy=0;entryX=0.5;entryY=0;entryDx=0;entryDy=0;" edge="1" parent="1">
          <mxGeometry width="50" height="50" relative="1" as="geometry">
            <mxPoint x="-490.34" y="620" as="sourcePoint" />
            <mxPoint x="-490" y="680" as="targetPoint" />
          </mxGeometry>
        </mxCell>
        <mxCell id="pXawCjsftcTQ7RIIFrh7-60" value="" style="endArrow=none;html=1;rounded=0;entryX=1;entryY=0.5;entryDx=0;entryDy=0;exitX=1;exitY=0.5;exitDx=0;exitDy=0;" edge="1" parent="1">
          <mxGeometry width="50" height="50" relative="1" as="geometry">
            <mxPoint x="-440" y="190" as="sourcePoint" />
            <mxPoint x="-430" y="339.66" as="targetPoint" />
            <Array as="points">
              <mxPoint x="-370" y="190" />
              <mxPoint x="-370" y="340" />
            </Array>
          </mxGeometry>
        </mxCell>
        <mxCell id="pXawCjsftcTQ7RIIFrh7-62" value="no" style="text;html=1;align=center;verticalAlign=middle;resizable=0;points=[];autosize=1;strokeColor=none;fillColor=none;" vertex="1" parent="1">
          <mxGeometry x="-130" y="318" width="40" height="30" as="geometry" />
        </mxCell>
        <mxCell id="pXawCjsftcTQ7RIIFrh7-63" value="yes" style="text;html=1;align=center;verticalAlign=middle;resizable=0;points=[];autosize=1;strokeColor=none;fillColor=none;" vertex="1" parent="1">
          <mxGeometry x="-220" y="400" width="40" height="30" as="geometry" />
        </mxCell>
        <mxCell id="pXawCjsftcTQ7RIIFrh7-64" value="yes" style="text;html=1;align=center;verticalAlign=middle;resizable=0;points=[];autosize=1;strokeColor=none;fillColor=none;" vertex="1" parent="1">
          <mxGeometry x="-530" y="400" width="40" height="30" as="geometry" />
        </mxCell>
        <mxCell id="pXawCjsftcTQ7RIIFrh7-65" value="no" style="text;html=1;align=center;verticalAlign=middle;resizable=0;points=[];autosize=1;strokeColor=none;fillColor=none;" vertex="1" parent="1">
          <mxGeometry x="-440" y="318" width="40" height="30" as="geometry" />
        </mxCell>
      </root>
    </mxGraphModel>
  </diagram>
</mxfile>
